# xmcd
#
# Track frame offsets:
#	150
#	21896
#	35357
#	55721
#	70984
#	89039
#	104432
#	126794
#	143675
#	157605
#	171570
#	189924
#	206106
#	222555
#	237703
#	255154
#
# Disc length: 3720 seconds
#
# Revision: 0
# Processed by: cddbd v1.4PL0 Copyright (c) Steve Scherf et al.
# Submitted via: audiograbber 1.81.01
#
DISCID=e60e8610
DTITLE=Alex Bueno - Que Vuelva
DYEAR=2002
DGENRE=Latin
TTITLE0=que vuelva
TTITLE1=he sabido que te amaba
TTITLE2=soy rebelde
TTITLE3=unicamente tu
TTITLE4=dame tu amor
TTITLE5=vuelve
TTITLE6=te sigo amando
TTITLE7=como a nadie
TTITLE8=acuerdate de mi
TTITLE9=entre tu amor y mi amor
TTITLE10=el pitico
TTITLE11=la pretendida
TTITLE12=amor de pobre
TTITLE13=dios debe estar muy trizte
TTITLE14=el hijo mio
TTITLE15=amores que matan
EXTD=
EXTT0=
EXTT1=
EXTT2=
EXTT3=
EXTT4=
EXTT5=
EXTT6=
EXTT7=
EXTT8=
EXTT9=
EXTT10=
EXTT11=
EXTT12=
EXTT13=
EXTT14=
EXTT15=
PLAYORDER=
